<?xml version="1.0" encoding="UTF-8"?>
<svg id="Layer_1" xmlns="http://www.w3.org/2000/svg" version="1.1" viewBox="0 0 30 30">
  <!-- Generator: Adobe Illustrator 29.1.0, SVG Export Plug-In . SVG Version: 2.1.0 Build 142)  -->
  <defs>
    <style>
      .st0 {
        fill: none;
        stroke: #17262d;
        stroke-miterlimit: 10;
      }

      .st1 {
        fill: #17262d;
      }
    </style>
  </defs>
  <path class="st1" d="M19.1,2.3l1.9,3.6.2.4h.5c0,0,4,.8,4,.8l-.6,4.1v.5c0,0,.3.4.3.4l2.8,2.9-2.8,2.9-.3.4v.5c0,0,.6,4.1.6,4.1l-4,.7h-.5c0,0-.2.5-.2.5l-1.9,3.6-3.7-1.8-.4-.2-.4.2-3.7,1.8-1.9-3.6-.2-.4h-.5c0,0-4-.8-4-.8l.6-4.1v-.5c0,0-.3-.4-.3-.4l-2.8-2.9,2.8-2.9.3-.4v-.5c0,0-.6-4.1-.6-4.1l4-.7h.5c0,0,.2-.5.2-.5l1.9-3.6,3.7,1.8.4.2.4-.2,3.7-1.8M19.5,1l-4.5,2.2-4.5-2.2-2.4,4.5-5,.9.7,5L.3,15l3.5,3.6-.7,5,5,.9,2.4,4.5,4.5-2.2,4.5,2.2,2.4-4.5,5-.9-.7-5,3.5-3.6-3.5-3.6.7-5-5-.9-2.4-4.5h0Z"/>
  <polyline class="st0" points="9.7 15.7 13.5 18.5 20 11.5"/>
</svg>