<?xml version="1.0" encoding="UTF-8"?>
<svg id="Layer_1" xmlns="http://www.w3.org/2000/svg" version="1.1" viewBox="0 0 632.6 158.4">
  <!-- Generator: Adobe Illustrator 29.1.0, SVG Export Plug-In . SVG Version: 2.1.0 Build 142)  -->
  <defs>
    <style>
      .st0 {
        fill: #fff;
      }
    </style>
  </defs>
  <g>
    <path class="st0" d="M519.1.6h7.6v42.5h12.6v7.1h-20.2V.6h0Z"/>
    <path class="st0" d="M555.1,21.5h10.5v7.1h-10.5v14.5h13.2v7.1h-20.8V.6h20.8v7.1h-13.2v13.8Z"/>
    <path class="st0" d="M577.8.6h12.1c7.6,0,11.4,4.3,11.4,12.3v25.1c0,7.9-3.7,12.3-11.4,12.3h-12.1V.6ZM585.5,7.7v35.4h4.3c2.4,0,3.9-1.3,3.9-4.8V12.5c0-3.5-1.5-4.8-3.9-4.8h-4.3Z"/>
    <path class="st0" d="M621.3,0c7.4,0,11.2,4.5,11.2,12.5v1.6h-7.2v-2.1c0-3.5-1.4-4.9-3.8-4.9s-3.8,1.3-3.8,4.9,1.5,6.3,6.5,10.8c6.4,5.7,8.4,9.8,8.4,15.5s-3.9,12.5-11.4,12.5-11.4-4.5-11.4-12.5v-3h7.2v3.5c0,3.5,1.5,4.8,4,4.8s4-1.3,4-4.8-1.5-6.3-6.5-10.8c-6.4-5.7-8.4-9.9-8.4-15.5s3.8-12.5,11.2-12.5Z"/>
  </g>
  <g>
    <path class="st0" d="M545,75.2l-12.1,28.3c-8,19.1-16,29.1-23.3,29.1h-.2c-3,0-6.9-1.8-10-4.9-3.6-3.5-5.7-8.1-5.7-12.2V42.1c0-22.4-18.2-40.6-40.6-40.6s-40.6,18.2-40.6,40.6v114.7h24.8v-72.3h31.7v31c0,10.7,4.8,21.6,13.1,29.8,7.8,7.7,17.7,12.1,27.3,12.1h.4c24.7,0,38.2-25.4,46.1-44.6l12.3-28.8-23.2-8.7h0ZM437.3,62.2v-20.1c0-8.7,7.1-15.8,15.8-15.8s15.8,7.1,15.8,15.8v20.1h-31.7.1Z"/>
    <path class="st0" d="M133,117.8c0,8.7-7.1,15.8-15.8,15.8s-15.8-7.1-15.8-15.8V42c0-10.5-4.4-20.6-12.4-28.5-7.9-7.8-18.2-12.2-28.3-12.1C32.6,1.4,19,34,14.6,44.7L0,79.6l23.2,8.7,14.3-34.3c5.3-12.8,13.7-27.9,23.3-27.9h.2c3.4,0,7.5,1.9,10.7,5s5,7.1,5,10.9v75.9c0,22.4,18.2,40.6,40.6,40.6s40.6-18.2,40.6-40.6V.7h-24.8v117.1h0Z"/>
    <polygon class="st0" points="228.8 22.9 254.4 22.9 254.4 156.5 278.9 156.5 278.9 22.9 304.5 22.9 304.5 .7 228.8 .7 228.8 22.9"/>
    <path class="st0" d="M395.3,113.5c0-16.3-4-27.8-16.3-32.9v-.4c10.9-5.1,16-15.4,16-31.4v-12.2c0-24-10.9-35.8-36.3-35.8h-37v155.8h24.5v-63.4h8.5c11.1,0,16,5.3,16,19.8v24.5c0,12.7.9,15.1,2.2,19.1h24.9c-2.4-5.8-2.7-11.4-2.7-18.9v-24l.2-.2ZM370.6,54.3c0,12.5-5.6,16.5-14.7,16.5h-9.6V22.9h11.8c8.7,0,12.5,4.9,12.5,16v15.4h0Z"/>
    <path class="st0" d="M201.5,115.3l.5-114.6h-24.8c0-.1-.5,114.5-.5,114.5,0,22.4,18,41.2,40.4,41.3h15.9v-24.7c.1,0-15.8,0-15.8,0-8.7-.1-15.8-7.8-15.8-16.5h0Z"/>
  </g>
</svg>